<svg fill="none" height="495" viewBox="0 0 945 495" width="945" xmlns="http://www.w3.org/2000/svg" xmlns:xlink="http://www.w3.org/1999/xlink"><linearGradient id="lg1"><stop offset="0" stop-color="#bdd4ff"/><stop offset="1" stop-color="#e7efff"/></linearGradient><linearGradient id="paint0_linear_242_4322" gradientUnits="userSpaceOnUse" x1="711.672" x2="754.375" xlink:href="#lg1" y1="518.925" y2="260.691"/><linearGradient id="paint1_linear_242_4322" gradientUnits="userSpaceOnUse" x1="723.236" x2="757.962" xlink:href="#lg1" y1="471.11" y2="261.113"/><linearGradient id="paint2_linear_242_4322" gradientUnits="userSpaceOnUse" x1="66.1411" x2="75.1289" y1="223.657" y2="223.657"><stop offset=".1441" stop-color="#edf3ff"/><stop offset="1" stop-color="#f8f8fe"/></linearGradient><linearGradient id="lg2"><stop offset=".09057" stop-color="#edf3ff"/><stop offset=".3878" stop-color="#e1ebff"/><stop offset=".9194" stop-color="#c2d7ff"/><stop offset="1" stop-color="#bdd4ff"/></linearGradient><linearGradient id="paint3_linear_242_4322" gradientUnits="userSpaceOnUse" x1="82.9029" x2="21.0004" xlink:href="#lg2" y1="214.978" y2="214.978"/><linearGradient id="paint4_linear_242_4322" gradientUnits="userSpaceOnUse" x1="38.0227" x2="144.65" xlink:href="#lg2" y1="184.077" y2="245.583"/><linearGradient id="paint5_linear_242_4322" gradientUnits="userSpaceOnUse" x1="110.109" x2="69.8829" y1="245.129" y2="230.501"><stop offset="0" stop-color="#667ea7" stop-opacity=".1747"/><stop offset="1" stop-color="#7e96be" stop-opacity=".1"/></linearGradient><linearGradient id="paint6_linear_242_4322" gradientUnits="userSpaceOnUse" x1="94.7947" x2="94.7947" xlink:href="#lg2" y1="214.978" y2="272.871"/><linearGradient id="paint7_linear_242_4322" gradientUnits="userSpaceOnUse" x1="59.2142" x2="85.491" y1="243.924" y2="243.924"><stop offset=".3863" stop-color="#dae2f6"/><stop offset=".719" stop-color="#bbc7e8"/><stop offset="1" stop-color="#9daedb"/></linearGradient><radialGradient id="paint8_radial_242_4322" cx="0" cy="0" gradientTransform="matrix(572.58732497 3.49641127 -2.1084606 345.29056257 442.543 312.346)" gradientUnits="userSpaceOnUse" r="1"><stop offset="0" stop-color="#bdd4ff" stop-opacity=".87"/><stop offset=".8621" stop-color="#edf3ff" stop-opacity="0"/></radialGradient><linearGradient id="paint9_linear_242_4322" gradientUnits="userSpaceOnUse" x1="19.1059" x2="96.472" xlink:href="#lg1" y1="533.732" y2="326.514"/><linearGradient id="lg3"><stop offset="0" stop-color="#27ae56"/><stop offset=".9987" stop-color="#d9e9de"/></linearGradient><linearGradient id="paint10_linear_242_4322" gradientUnits="userSpaceOnUse" x1="284.082" x2="298.939" xlink:href="#lg3" y1="435.641" y2="358.395"/><linearGradient id="paint11_linear_242_4322" gradientUnits="userSpaceOnUse" x1="263.262" x2="290.248" xlink:href="#lg3" y1="476.927" y2="336.672"/><linearGradient id="paint12_linear_242_4322" gradientUnits="userSpaceOnUse" x1="272.868" x2="288.605" xlink:href="#lg3" y1="256.422" y2="395.68"/><linearGradient id="paint13_linear_242_4322" gradientUnits="userSpaceOnUse" x1="239.266" x2="255.003" xlink:href="#lg3" y1="260.219" y2="399.477"/><linearGradient id="paint14_linear_242_4322" gradientUnits="userSpaceOnUse" x1="267.728" x2="278.037" xlink:href="#lg3" y1="390.945" y2="343.689"/><linearGradient id="paint15_linear_242_4322" gradientUnits="userSpaceOnUse" x1="238.782" x2="265.767" xlink:href="#lg3" y1="472.217" y2="331.962"/><linearGradient id="paint16_linear_242_4322" gradientUnits="userSpaceOnUse" x1="252.738" x2="267.595" xlink:href="#lg3" y1="429.613" y2="352.366"/><linearGradient id="paint17_linear_242_4322" gradientUnits="userSpaceOnUse" x1="255.926" x2="282.911" xlink:href="#lg3" y1="475.516" y2="335.26"/><linearGradient id="paint18_linear_242_4322" gradientUnits="userSpaceOnUse" x1="218.766" x2="245.751" xlink:href="#lg3" y1="468.366" y2="328.111"/><linearGradient id="paint19_linear_242_4322" gradientUnits="userSpaceOnUse" x1="217.016" x2="231.873" xlink:href="#lg3" y1="422.742" y2="345.496"/><linearGradient id="paint20_linear_242_4322" gradientUnits="userSpaceOnUse" x1="218.557" x2="245.543" xlink:href="#lg3" y1="468.326" y2="328.07"/><linearGradient id="lg4"><stop offset=".2689" stop-color="#bdd4ff"/><stop offset="1" stop-color="#77a7ff"/></linearGradient><radialGradient id="paint21_radial_242_4322" cx="0" cy="0" gradientTransform="matrix(88.8253 0 0 88.9062 263.495 389.813)" gradientUnits="userSpaceOnUse" r="1" xlink:href="#lg4"/><radialGradient id="paint22_radial_242_4322" cx="0" cy="0" gradientTransform="matrix(121.163 0 0 121.274 335.246 390.99)" gradientUnits="userSpaceOnUse" r="1" xlink:href="#lg4"/><linearGradient id="paint23_linear_242_4322" gradientUnits="userSpaceOnUse" x1="43.5651" x2="182.284" xlink:href="#lg1" y1="288.445" y2="164.808"/><linearGradient id="lg5"><stop offset=".00190595" stop-color="#4873c4" stop-opacity=".2"/><stop offset=".2033" stop-color="#4b75c5" stop-opacity=".1568"/><stop offset=".3441" stop-color="#547cc8" stop-opacity=".1266"/><stop offset=".4664" stop-color="#6388cd" stop-opacity=".1004"/><stop offset=".5782" stop-color="#7999d4" stop-opacity=".076459"/><stop offset=".6828" stop-color="#96aedd" stop-opacity=".054032"/><stop offset=".7821" stop-color="#b9c9e8" stop-opacity=".032757"/><stop offset=".8753" stop-color="#e1e8f5" stop-opacity=".012762"/><stop offset=".9349" stop-color="#ffffff" stop-opacity="0"/></linearGradient><radialGradient id="paint24_radial_242_4322" cx="0" cy="0" gradientTransform="matrix(213.418 0 0 14.9945 486.702 459.657)" gradientUnits="userSpaceOnUse" r="1" xlink:href="#lg5"/><radialGradient id="paint25_radial_242_4322" cx="0" cy="0" gradientTransform="matrix(70.1253 0 0 15.4761 663.128 461.234)" gradientUnits="userSpaceOnUse" r="1"><stop offset=".00230074" stop-color="#4873c4" stop-opacity=".2"/><stop offset=".2036" stop-color="#4b75c5" stop-opacity=".1568"/><stop offset=".3444" stop-color="#547cc8" stop-opacity=".1266"/><stop offset=".4666" stop-color="#6388cd" stop-opacity=".1004"/><stop offset=".5784" stop-color="#7999d4" stop-opacity=".076459"/><stop offset=".6829" stop-color="#96aedd" stop-opacity=".054032"/><stop offset=".7821" stop-color="#b9c9e8" stop-opacity=".032757"/><stop offset=".8754" stop-color="#e1e8f5" stop-opacity=".012762"/><stop offset=".9349" stop-color="#ffffff" stop-opacity="0"/></radialGradient><radialGradient id="paint26_radial_242_4322" cx="0" cy="0" gradientTransform="matrix(257.753 0 0 8.39173 134.607 456.959)" gradientUnits="userSpaceOnUse" r="1" xlink:href="#lg5"/><linearGradient id="lg6"><stop offset="0" stop-color="#77a7ff"/><stop offset="1" stop-color="#bdd4ff"/></linearGradient><linearGradient id="paint27_linear_242_4322" gradientUnits="userSpaceOnUse" x1="620.354" x2="714.576" xlink:href="#lg6" y1="358.169" y2="385.658"/><linearGradient id="paint28_linear_242_4322" gradientUnits="userSpaceOnUse" x1="612.437" x2="692.019" xlink:href="#lg6" y1="454.724" y2="335.199"/><linearGradient id="paint29_linear_242_4322" gradientUnits="userSpaceOnUse" x1="647.625" x2="668.048" xlink:href="#lg6" y1="492.632" y2="392.859"/><linearGradient id="paint30_linear_242_4322" gradientUnits="userSpaceOnUse" x1="643.869" x2="657.554" xlink:href="#lg6" y1="451.445" y2="455.437"/><linearGradient id="paint31_linear_242_4322" gradientUnits="userSpaceOnUse" x1="607.613" x2="644.246" xlink:href="#lg6" y1="338.612" y2="283.879"/><linearGradient id="paint32_linear_242_4322" gradientUnits="userSpaceOnUse" x1="646.888" x2="661.099" xlink:href="#lg6" y1="238.695" y2="242.841"/><linearGradient id="paint33_linear_242_4322" gradientUnits="userSpaceOnUse" x1="647.227" x2="656.22" xlink:href="#lg6" y1="457.984" y2="446.286"/><linearGradient id="paint34_linear_242_4322" gradientUnits="userSpaceOnUse" x1="672.256" x2="685.94" xlink:href="#lg6" y1="451.446" y2="455.438"/><linearGradient id="paint35_linear_242_4322" gradientUnits="userSpaceOnUse" x1="675.613" x2="684.607" xlink:href="#lg6" y1="457.985" y2="446.288"/><radialGradient id="paint36_radial_242_4322" cx="0" cy="0" gradientTransform="matrix(83.4208 0 0 7.38789 265.986 455.9)" gradientUnits="userSpaceOnUse" r="1" xlink:href="#lg5"/><linearGradient id="lg7"><stop offset="0" stop-color="#4687ff"/><stop offset="1" stop-color="#77a7ff"/></linearGradient><linearGradient id="paint37_linear_242_4322" gradientUnits="userSpaceOnUse" x1="400.259" x2="399.799" xlink:href="#lg7" y1="415.564" y2="428.908"/><linearGradient id="paint38_linear_242_4322" gradientUnits="userSpaceOnUse" x1="582.333" x2="581.873" xlink:href="#lg7" y1="421.849" y2="435.192"/><linearGradient id="lg8"><stop offset="0" stop-color="#4687ff"/><stop offset=".9992" stop-color="#77a7ff"/></linearGradient><linearGradient id="paint39_linear_242_4322" gradientUnits="userSpaceOnUse" x1="487.112" x2="496.525" xlink:href="#lg8" y1="406.641" y2="252.638"/><linearGradient id="paint40_linear_242_4322" gradientUnits="userSpaceOnUse" x1="486.002" x2="495.415" xlink:href="#lg8" y1="531.474" y2="246.98"/><linearGradient id="paint41_linear_242_4322" gradientUnits="userSpaceOnUse" x1="491.775" x2="627.084" xlink:href="#lg8" y1="319.226" y2="646.334"/><linearGradient id="lg9"><stop offset=".000572904" stop-color="#ebd2a2"/><stop offset=".9981" stop-color="#cda683"/></linearGradient><linearGradient id="paint42_linear_242_4322" gradientUnits="userSpaceOnUse" x1="488.01" x2="485.152" xlink:href="#lg9" y1="153.003" y2="196.78"/><linearGradient id="paint43_linear_242_4322" gradientUnits="userSpaceOnUse" x1="507.702" x2="504.845" xlink:href="#lg9" y1="154.288" y2="198.065"/><linearGradient id="paint44_linear_242_4322" gradientUnits="userSpaceOnUse" x1="495.103" x2="495.103" y1="204.01" y2="228.076"><stop offset=".1022" stop-color="#f6cfbe"/><stop offset="1" stop-color="#ffe8e1"/></linearGradient><linearGradient id="lg10"><stop offset="0" stop-color="#f6cfbe"/><stop offset="1" stop-color="#ffe8e1"/></linearGradient><linearGradient id="paint45_linear_242_4322" gradientUnits="userSpaceOnUse" x1="516.37" x2="517.585" xlink:href="#lg10" y1="199.456" y2="187.013"/><linearGradient id="paint46_linear_242_4322" gradientUnits="userSpaceOnUse" x1="514.856" x2="516.067" xlink:href="#lg10" y1="196.082" y2="183.676"/><linearGradient id="paint47_linear_242_4322" gradientUnits="userSpaceOnUse" x1="481.505" x2="482.349" xlink:href="#lg10" y1="196.518" y2="184.093"/><linearGradient id="paint48_linear_242_4322" gradientUnits="userSpaceOnUse" x1="484.657" x2="485.502" xlink:href="#lg10" y1="193.4" y2="180.963"/><linearGradient id="paint49_linear_242_4322" gradientUnits="userSpaceOnUse" x1="501.333" x2="501.333" xlink:href="#lg10" y1="84.3636" y2="278.411"/><linearGradient id="paint50_linear_242_4322" gradientUnits="userSpaceOnUse" x1="493.959" x2="491.102" xlink:href="#lg9" y1="153.391" y2="197.168"/><linearGradient id="paint51_linear_242_4322" gradientUnits="userSpaceOnUse" x1="512.694" x2="509.836" xlink:href="#lg9" y1="154.614" y2="198.391"/><linearGradient id="lg11"><stop offset="0" stop-color="#f86e80"/><stop offset=".9987" stop-color="#ffd4d8"/></linearGradient><radialGradient id="paint52_radial_242_4322" cx="0" cy="0" gradientTransform="matrix(108.674 0 0 108.773 506.598 315.155)" gradientUnits="userSpaceOnUse" r="1" xlink:href="#lg11"/><linearGradient id="paint53_linear_242_4322" gradientUnits="userSpaceOnUse" x1="539.336" x2="539.336" xlink:href="#lg10" y1="366.078" y2="351.982"/><linearGradient id="paint54_linear_242_4322" gradientUnits="userSpaceOnUse" x1="523.668" x2="542.909" xlink:href="#lg10" y1="416.847" y2="416.847"/><linearGradient id="lg12"><stop offset="0" stop-color="#0e1b33"/><stop offset="1" stop-color="#233b67"/></linearGradient><linearGradient id="paint55_linear_242_4322" gradientUnits="userSpaceOnUse" x1="421.688" x2="538.432" xlink:href="#lg12" y1="336.269" y2="336.269"/><radialGradient id="paint56_radial_242_4322" cx="0" cy="0" gradientTransform="matrix(115.348 0 0 14.4436 494.422 366.635)" gradientUnits="userSpaceOnUse" r="1"><stop offset=".00000097764" stop-color="#4873c4" stop-opacity=".9"/><stop offset=".1821" stop-color="#4771c0" stop-opacity=".7041"/><stop offset=".3532" stop-color="#426ab5" stop-opacity=".5202"/><stop offset=".5199" stop-color="#3a5ea2" stop-opacity=".3409"/><stop offset=".6828" stop-color="#304f87" stop-opacity=".1658"/><stop offset=".8369" stop-color="#233b67" stop-opacity="0"/></radialGradient><linearGradient id="paint57_linear_242_4322" gradientUnits="userSpaceOnUse" x1="515.615" x2="541.93" xlink:href="#lg12" y1="438.899" y2="438.899"/><linearGradient id="paint58_linear_242_4322" gradientUnits="userSpaceOnUse" x1="560.971" x2="722.927" y1="359.03" y2="343.297"><stop offset="0" stop-color="#233b67"/><stop offset=".9981" stop-color="#565378"/></linearGradient><linearGradient id="paint59_linear_242_4322" gradientUnits="userSpaceOnUse" x1="463.357" x2="468.763" xlink:href="#lg12" y1="399.783" y2="348.172"/><radialGradient id="paint60_radial_242_4322" cx="0" cy="0" gradientTransform="matrix(158.595 0 0 158.738 537.075 264.76)" gradientUnits="userSpaceOnUse" r="1" xlink:href="#lg11"/><radialGradient id="paint61_radial_242_4322" cx="0" cy="0" gradientTransform="matrix(-158.592 0 0 -158.738 455.263 264.76)" gradientUnits="userSpaceOnUse" r="1" xlink:href="#lg11"/><linearGradient id="paint62_linear_242_4322" gradientUnits="userSpaceOnUse" x1="494.134" x2="494.134" y1="284.377" y2="257.998"><stop offset="0" stop-color="#f6cfbe"/><stop offset=".1915" stop-color="#f8d6c8" stop-opacity=".8085"/><stop offset=".6664" stop-color="#fde3da" stop-opacity=".3336"/><stop offset="1" stop-color="#ffe8e1" stop-opacity="0"/></linearGradient><linearGradient id="paint63_linear_242_4322" gradientUnits="userSpaceOnUse" x1="494.472" x2="494.834" xlink:href="#lg1" y1="339.611" y2="309.604"/><linearGradient id="paint64_linear_242_4322" gradientUnits="userSpaceOnUse" x1="519.673" x2="455.117" xlink:href="#lg1" y1="351.76" y2="297.641"/><linearGradient id="paint65_linear_242_4322" gradientUnits="userSpaceOnUse" x1="448.192" x2="542.276" y1="275.614" y2="275.614"><stop offset="0" stop-color="#ffffff"/><stop offset=".4647" stop-color="#eff4ff" stop-opacity="0"/><stop offset="1" stop-color="#ffffff"/></linearGradient><linearGradient id="paint66_linear_242_4322" gradientUnits="userSpaceOnUse" x1="455.643" x2="552.221" xlink:href="#lg12" y1="414.447" y2="360.509"/><clipPath id="clip0_242_4322"><path d="M0 0H945V495H0Z"/></clipPath><g clip-path="url(#clip0_242_4322)"><path d="M985.713-22.6218H-38.8242V569.092H985.713V-22.6218Z" fill="#bdd4ff"/><path d="M862.155 53.914H666.304 645.12V77.4029 347.131H666.304V77.4029H862.155V347.131H883.339V77.4029 53.914H862.155Z" fill="url(#paint0_linear_242_4322)"/><path d="M767.656 77.2452H764.19V347.209H767.656V77.2452Z" fill="url(#paint1_linear_242_4322)"/><path d="M784.429 72.4371H747.574C746.55 72.4371 745.684 71.5701 745.684 70.5454V60.9291C745.684 59.9045 746.55 59.0374 747.574 59.0374H784.429C785.452 59.0374 786.319 59.9045 786.319 60.9291V70.6242C786.24 71.6489 785.452 72.4371 784.429 72.4371Z" fill="#ffffff"/><path d="M67.0947 222.277 68.1185 225.194H73.7097C73.7097 225.194 72.5285 221.252 67.0947 222.277Z" fill="url(#paint2_linear_242_4322)"/><path d="M61.5824 253.018H26.1449C23.3886 253.018 20.3174 251.126 21.1049 247.973L37.4061 181.92C38.5086 178.768 39.6899 176.876 42.4461 176.876H77.8836C80.6399 176.876 82.9236 179.162 82.9236 181.92L66.6224 247.973C66.6224 250.811 64.3386 253.018 61.5824 253.018Z" fill="url(#paint3_linear_242_4322)"/><path d="M138.364 253.018H27.8778C25.6728 253.018 23.2316 251.126 23.8616 248.998L40.1628 180.975C41.0291 178.137 41.9741 176.955 44.1791 176.955H154.587C156.792 176.955 159.154 177.901 158.603 180.975L142.302 248.998C141.672 251.205 140.569 253.018 138.364 253.018Z" fill="url(#paint4_linear_242_4322)"/><path d="M75.0482 216.365H100.563L107.257 253.018H62.4482L75.0482 216.365Z" fill="url(#paint5_linear_242_4322)"/><path d="M104.658 214.947H76.8594L85.4431 269.097C85.7581 271.068 84.2619 272.881 82.2144 272.881H81.2694 106.154C110.171 272.881 113.321 269.255 112.691 265.235L104.658 214.947ZM96.6256 249.786C94.0269 250.18 91.4281 247.027 90.7194 242.771 90.0106 238.514 91.5856 234.652 94.1844 234.258 96.7831 233.864 99.3819 237.017 100.091 241.273 100.721 245.53 99.2244 249.313 96.6256 249.786Z" fill="url(#paint6_linear_242_4322)"/><path d="M76.8597 214.947 75.0485 216.365 83.3172 268.703C83.4747 269.807 82.6085 270.831 81.506 270.831H60.3222C59.6922 270.831 59.2197 271.304 59.2197 271.935V272.881H82.3722C84.2622 272.881 85.7585 271.147 85.4435 269.255L76.8597 214.947Z" fill="url(#paint7_linear_242_4322)"/><path d="M100.012 241.352C99.3822 237.017 96.7047 233.864 94.1059 234.258 93.9484 234.258 93.7909 234.337 93.5547 234.416 95.6022 235.125 97.4134 237.884 97.9647 241.431 98.5159 245.451 97.3347 248.919 95.1297 249.707 95.6022 249.865 95.9959 249.943 96.4684 249.865 99.1459 249.392 100.721 245.687 100.012 241.352Z" fill="#aebde3"/><g fill="#e9f0fd"><path d="M175.218 126.036 172.226 125.799 192.228 88.0438 194.669 89.305 175.218 126.036Z" opacity=".46"/><path d="M170.258 125.011 164.745 121.937 185.299 84.1816 190.811 87.2556 170.258 125.011Z" opacity=".46"/><path d="M274.916 126.036 271.924 125.799 291.848 88.0438 294.368 89.305 274.916 126.036Z" opacity=".46"/><path d="M269.876 125.011 264.363 121.937 284.917 84.1816 290.508 87.2556 269.876 125.011Z" opacity=".46"/><path d="M372.881 126.036 369.889 125.799 389.891 88.0438 392.332 89.305 372.881 126.036Z" opacity=".46"/><path d="M367.92 125.011 362.407 121.937 382.961 84.1816 388.473 87.2556 367.92 125.011Z" opacity=".46"/></g><path d="M179.786 127.218C191.877 127.218 201.679 117.408 201.679 105.306 201.679 93.2039 191.877 83.3934 179.786 83.3934 167.695 83.3934 157.894 93.2039 157.894 105.306 157.894 117.408 167.695 127.218 179.786 127.218Z" stroke="#d4e1fc" stroke-miterlimit="10" stroke-width="1.8571"/><path d="M179.786 107.04C180.743 107.04 181.519 106.263 181.519 105.306 181.519 104.348 180.743 103.572 179.786 103.572 178.829 103.572 178.054 104.348 178.054 105.306 178.054 106.263 178.829 107.04 179.786 107.04Z" fill="#d4e1fc"/><path d="M178.92 105.227 179.55 106.252 171.439 110.981C171.124 111.139 170.809 111.06 170.651 110.744 170.494 110.429 170.572 110.114 170.887 109.956L178.92 105.227Z" fill="#d4e1fc"/><path d="M179.313 88.0439V105.385H180.258V88.0439C180.258 87.8074 180.022 87.5709 179.786 87.5709 179.471 87.5709 179.313 87.7286 179.313 88.0439Z" fill="#d4e1fc"/><path d="M278.46 127.218C290.551 127.218 300.352 117.408 300.352 105.306 300.352 93.2039 290.551 83.3934 278.46 83.3934 266.369 83.3934 256.567 93.2039 256.567 105.306 256.567 117.408 266.369 127.218 278.46 127.218Z" stroke="#d4e1fc" stroke-miterlimit="10" stroke-width="1.8571"/><path d="M278.46 107.04C279.417 107.04 280.193 106.263 280.193 105.306 280.193 104.348 279.417 103.572 278.46 103.572 277.503 103.572 276.728 104.348 276.728 105.306 276.728 106.263 277.503 107.04 278.46 107.04Z" fill="#d4e1fc"/><path d="M278.302 104.518 277.515 105.385 270.506 99.1577C270.27 98.9212 270.27 98.5271 270.427 98.2906 270.663 98.0542 271.057 98.0542 271.293 98.2118L278.302 104.518Z" fill="#d4e1fc"/><path d="M294.761 99.4729 278.303 104.912 278.618 105.779 295.076 100.34C295.313 100.261 295.47 100.025 295.391 99.7882 295.234 99.4729 294.998 99.3941 294.761 99.4729Z" fill="#d4e1fc"/><path d="M377.134 127.218C389.225 127.218 399.026 117.408 399.026 105.306 399.026 93.2039 389.225 83.3934 377.134 83.3934 365.043 83.3934 355.241 93.2039 355.241 105.306 355.241 117.408 365.043 127.218 377.134 127.218Z" stroke="#d4e1fc" stroke-miterlimit="10" stroke-width="1.8571"/><path d="M377.134 107.04C378.091 107.04 378.866 106.263 378.866 105.306 378.866 104.348 378.091 103.572 377.134 103.572 376.177 103.572 375.401 104.348 375.401 105.306 375.401 106.263 376.177 107.04 377.134 107.04Z" fill="#d4e1fc"/><path d="M377.448 106.094 378.078 105.069 386.032 110.114C386.347 110.272 386.426 110.666 386.19 110.902 386.032 111.217 385.638 111.296 385.402 111.06L377.448 106.094Z" fill="#d4e1fc"/><path d="M362.092 113.819 377.448 105.779 377.055 104.99 361.698 113.03C361.462 113.109 361.383 113.424 361.541 113.661 361.541 113.819 361.856 113.897 362.092 113.819Z" fill="#d4e1fc"/><path d="M972.089 348.234H-22.6807V552.934H972.089V348.234Z" fill="url(#paint8_radial_242_4322)"/><path d="M199.158 240.012H-22.6807V456.377H199.158V240.012Z" fill="url(#paint9_linear_242_4322)"/><path d="M269.719 400.335C267.593 386.463 305.787 360.373 321.379 348.155 322.009 347.682 322.718 348.549 322.167 349.101 310.905 360.373 290.824 384.965 279.327 401.518 276.728 405.222 270.349 404.592 269.719 400.335Z" fill="url(#paint10_linear_242_4322)"/><path d="M272.082 401.99C287.674 388.906 297.203 358.954 299.881 349.574 300.038 348.943 299.251 348.549 298.857 349.022 293.108 356.51 275.232 380.314 266.491 397.655 264.522 401.754 268.774 404.749 272.082 401.99Z" fill="url(#paint11_linear_242_4322)"/><path d="M268.065 388.275C268.459 376.846 276.334 362.185 284.918 352.963 292.635 344.135 299.171 338.854 301.691 338.854 301.928 338.854 302.006 339.17 301.849 339.327 298.069 342.48 275.546 367.545 275.074 390.246 274.601 394.739 267.75 393.241 268.065 388.275Z" fill="url(#paint12_linear_242_4322)"/><path d="M261.529 403.252C253.969 376.058 244.676 328.686 243.022 319.779 243.022 319.622 242.786 319.622 242.786 319.779 242.865 328.844 243.81 377.162 251.291 403.173H261.529V403.252Z" fill="url(#paint13_linear_242_4322)"/><path d="M272.081 386.936C284.366 359.19 294.761 304.094 298.148 284.94 298.305 284.231 297.439 283.916 297.203 284.625 290.981 303.227 272.711 357.693 260.584 386.62 259.245 389.773 270.743 390.088 272.081 386.936Z" fill="url(#paint14_linear_242_4322)"/><path d="M253.024 399.389C251.528 364.708 252.709 306.695 253.103 290.379 253.103 289.906 253.811 289.827 253.89 290.3 256.489 307.089 266.254 368.491 272.79 401.754 273.499 405.222 253.181 402.936 253.024 399.389Z" fill="url(#paint15_linear_242_4322)"/><path d="M257.434 392.374C257.355 380.157 264.758 359.19 267.278 352.569 267.357 352.333 267.75 352.412 267.75 352.648 266.727 359.506 264.207 380.551 262.947 393.399 262.159 400.887 257.513 395.606 257.434 392.374Z" fill="url(#paint16_linear_242_4322)"/><path d="M274.917 400.887C283.894 380.709 277.752 345.791 276.57 339.642 276.492 339.406 276.255 339.406 276.177 339.642 274.917 345.554 268.223 378.423 268.065 399.547 267.987 404.04 273.184 404.828 274.917 400.887Z" fill="url(#paint17_linear_242_4322)"/><path d="M248.299 401.99C232.942 371.171 221.681 307.641 219.476 294.714 219.397 294.478 219.791 294.32 219.87 294.635 224.437 307.168 248.771 370.225 263.812 402.306 265.387 405.459 249.874 405.143 248.299 401.99Z" fill="url(#paint18_linear_242_4322)"/><path d="M247.275 400.493C222.311 375.743 209.396 323.405 202.466 305.197 202.23 304.488 203.018 304.015 203.333 304.646 212.94 321.75 235.226 374.639 258.536 397.892 260.978 400.414 249.716 402.936 247.275 400.493Z" fill="url(#paint19_linear_242_4322)"/><path d="M249.401 403.015C230.974 400.493 218.846 368.964 215.775 360.215 215.618 359.821 216.169 359.584 216.326 359.9 221.13 366.757 237.904 389.615 253.575 397.419 257.67 399.468 253.654 403.567 249.401 403.015Z" fill="url(#paint20_linear_242_4322)"/><path d="M290.273 398.286H258.458 226.643C226.643 398.286 220.973 421.223 236.487 455.904H258.458 280.429C295.943 421.223 290.273 398.286 290.273 398.286Z" fill="url(#paint21_radial_242_4322)"/><path d="M290.43 398.286H280.508C280.508 398.286 286.178 421.223 270.664 455.904H280.587C296.1 421.223 290.43 398.286 290.43 398.286Z" fill="url(#paint22_radial_242_4322)"/><path d="M204.041 239.776H-22.6807V253.096H204.041V239.776Z" fill="url(#paint23_linear_242_4322)"/><path d="M486.675 475.295C604.54 475.295 700.088 468.59 700.088 460.318 700.088 452.047 604.54 445.342 486.675 445.342 368.811 445.342 273.263 452.047 273.263 460.318 273.263 468.59 368.811 475.295 486.675 475.295Z" fill="url(#paint24_radial_242_4322)"/><path d="M663.154 477.029C701.905 477.029 733.32 470.112 733.32 461.58 733.32 453.047 701.905 446.131 663.154 446.131 624.402 446.131 592.987 453.047 592.987 461.58 592.987 470.112 624.402 477.029 663.154 477.029Z" fill="url(#paint25_radial_242_4322)"/><path d="M134.584 465.284C276.934 465.284 392.332 461.544 392.332 456.929 392.332 452.315 276.934 448.574 134.584 448.574-7.767 448.574-123.165 452.315-123.165 456.929-123.165 461.544-7.767 465.284 134.584 465.284Z" fill="url(#paint26_radial_242_4322)"/><path d="M648.349 446.209H686.7C694.26 446.209 700.403 440.061 700.403 432.494V311.267C700.403 303.7 694.26 297.552 686.7 297.552H648.349C640.789 297.552 634.646 303.7 634.646 311.267V432.494C634.646 440.061 640.789 446.209 648.349 446.209Z" fill="url(#paint27_linear_242_4322)"/><path d="M650.554 442.584H684.416C691.425 442.584 697.095 436.908 697.095 429.893V313.868C697.095 306.853 691.425 301.178 684.416 301.178H650.554C643.545 301.178 637.875 306.853 637.875 313.868V429.893C637.875 436.908 643.545 442.584 650.554 442.584Z" fill="url(#paint28_linear_242_4322)"/><path d="M663.075 422.563H671.816C673.864 422.563 675.596 420.908 675.596 418.779V371.881H659.295V418.779C659.295 420.908 661.027 422.563 663.075 422.563Z" fill="url(#paint29_linear_242_4322)"/><path d="M650.791 460.476C654.705 460.476 657.878 457.3 657.878 453.382 657.878 449.464 654.705 446.288 650.791 446.288 646.876 446.288 643.703 449.464 643.703 453.382 643.703 457.3 646.876 460.476 650.791 460.476Z" fill="url(#paint30_linear_242_4322)"/><path d="M650.947 297.552H657.09V240.721H650.947V297.552Z" fill="url(#paint31_linear_242_4322)"/><path d="M654.019 248.131C658.107 248.131 661.421 244.813 661.421 240.721 661.421 236.629 658.107 233.312 654.019 233.312 649.93 233.312 646.616 236.629 646.616 240.721 646.616 244.813 649.93 248.131 654.019 248.131Z" fill="url(#paint32_linear_242_4322)"/><path d="M650.79 458.111C653.4 458.111 655.515 455.994 655.515 453.382 655.515 450.77 653.4 448.653 650.79 448.653 648.181 448.653 646.065 450.77 646.065 453.382 646.065 455.994 648.181 458.111 650.79 458.111Z" fill="url(#paint33_linear_242_4322)"/><path d="M679.14 460.476C683.055 460.476 686.228 457.3 686.228 453.382 686.228 449.464 683.055 446.288 679.14 446.288 675.226 446.288 672.053 449.464 672.053 453.382 672.053 457.3 675.226 460.476 679.14 460.476Z" fill="url(#paint34_linear_242_4322)"/><path d="M679.14 458.111C681.75 458.111 683.865 455.994 683.865 453.382 683.865 450.77 681.75 448.653 679.14 448.653 676.53 448.653 674.415 450.77 674.415 453.382 674.415 455.994 676.53 458.111 679.14 458.111Z" fill="url(#paint35_linear_242_4322)"/><path d="M266.017 463.314C312.076 463.314 349.414 459.996 349.414 455.904 349.414 451.812 312.076 448.495 266.017 448.495 219.959 448.495 182.621 451.812 182.621 455.904 182.621 459.996 219.959 463.314 266.017 463.314Z" fill="url(#paint36_radial_242_4322)"/><path d="M403.83 405.38 383.749 456.141C381.938 461.107 386.269 461.816 388.789 457.56L416.115 405.38H403.83Z" fill="url(#paint37_linear_242_4322)"/><path d="M577.867 405.38 597.948 456.141C599.759 461.107 595.428 461.816 592.908 457.56L565.582 405.38H577.867Z" fill="url(#paint38_linear_242_4322)"/><path d="M562.59 228.504H423.124C413.516 228.504 405.326 235.44 403.751 244.978L392.647 312.843C392.647 312.843 394.222 313.001 395.482 313.001H401.625C404.539 313.001 407.374 314.577 408.555 317.573 410.839 323.484 420.21 354.54 441 354.54H521.325 544.793C565.583 354.54 574.954 323.484 577.238 317.573 578.498 314.577 581.333 313.001 584.168 313.001H590.31C591.491 313.001 593.145 312.843 593.145 312.843L581.963 244.978C580.388 235.519 572.198 228.504 562.59 228.504Z" fill="url(#paint39_linear_242_4322)"/><path d="M613.777 312.843H593.066C593.46 313.553 593.224 315.917 592.672 317.415L582.592 355.407C581.096 360.215 578.104 370.068 567.945 370.068H521.246 417.69C407.531 370.068 404.539 360.215 403.042 355.407L392.962 317.415C392.49 315.917 392.175 313.553 392.569 312.843H371.857C361.069 312.843 358.47 321.435 360.045 328.213L373.826 393.005C377.212 405.695 384.536 405.38 394.459 405.38H521.246 591.097C601.02 405.38 608.344 405.616 611.73 393.005L625.511 328.213C627.165 321.435 624.566 312.843 613.777 312.843Z" fill="url(#paint40_linear_242_4322)"/><path d="M593.066 312.843C593.066 312.843 591.491 313.001 590.231 313.001H584.089C581.175 313.001 578.34 314.577 577.159 317.573 574.875 323.484 565.504 354.54 544.714 354.54H521.246 440.921C420.131 354.54 410.76 323.484 408.476 317.573 407.216 314.577 404.381 313.001 401.546 313.001H395.404C394.222 313.001 392.569 312.843 392.569 312.843 392.175 313.553 392.411 315.917 392.962 317.415L403.042 355.407C404.539 360.215 407.531 370.068 417.69 370.068H521.325 568.024C578.182 370.068 581.175 360.215 582.671 355.407L592.751 317.415C593.224 315.917 593.539 313.553 593.066 312.843Z" fill="url(#paint41_linear_242_4322)"/><path d="M503.134 154.727C503.134 154.727 492.739 151.338 483.053 160.954 475.256 168.678 476.123 182.787 474.311 194.926 473.209 202.651 470.531 208.089 468.956 212.03 468.641 212.897 469.035 213.843 469.901 214.237 473.366 215.735 483.446 218.967 495.495 218.178L503.134 154.727Z" fill="url(#paint42_linear_242_4322)"/><path d="M503.134 154.727C503.134 154.727 525.735 157.328 524.318 180.896 524.003 185.31 523.688 189.724 523.294 193.271 521.876 207.222 521.404 213.686 522.585 218.021 522.821 218.888 522.27 219.755 521.325 219.834 515.183 220.228 495.731 221.095 487.305 217.863 477.225 214.001 500.535 192.246 500.535 192.246L497.228 160.323 503.134 154.727Z" fill="url(#paint43_linear_242_4322)"/><path d="M507.071 223.775C507.071 223.775 504 219.834 503.685 209.193 503.37 198.631 490.455 207.459 490.455 207.459 490.455 207.459 487.383 222.75 483.525 223.617 479.745 224.484 503.291 233.076 507.071 223.775Z" fill="url(#paint44_linear_242_4322)"/><path d="M518.332 187.596C518.096 187.438 517.781 187.359 517.545 187.28 516.757 191.615 515.182 195.635 513.528 199.182 515.576 199.734 516.6 199.34 519.198 194.532 520.773 191.615 520.222 188.778 518.332 187.596Z" fill="url(#paint45_linear_242_4322)"/><path d="M512.82 189.251C511.953 192.404 512.977 195.399 515.182 196.029H515.261C516.915 192.483 518.175 188.463 518.962 184.127 515.891 183.024 513.607 186.413 512.82 189.251Z" fill="url(#paint46_linear_242_4322)"/><path d="M483.84 184.285C483.21 184.127 482.422 184.127 481.635 184.522 479.587 185.389 478.564 188.147 479.666 191.221 481.241 195.714 482.344 196.818 484.391 196.66 483.761 192.798 483.367 188.62 483.84 184.285Z" fill="url(#paint47_linear_242_4322)"/><path d="M487.226 186.965C486.989 184.443 485.651 181.369 483.367 180.896 482.894 185.231 482.973 189.408 483.524 193.271 483.603 193.271 483.682 193.271 483.761 193.271 486.044 193.034 487.541 190.197 487.226 186.965Z" fill="url(#paint48_linear_242_4322)"/><path d="M504.158 164.895C495.889 163.476 486.911 159.85 483.761 177.664 483.604 178.768 483.446 179.871 483.289 180.896 482.816 185.231 482.895 189.408 483.446 193.271 485.021 203.99 490.061 211.951 495.731 212.976 501.874 214.08 510.143 207.143 515.183 196.108 516.836 192.561 518.096 188.541 518.884 184.206 518.884 184.049 518.963 183.97 518.963 183.812 522.113 165.998 512.426 166.314 504.158 164.895Z" fill="url(#paint49_linear_242_4322)"/><path d="M501.637 167.023C501.637 167.023 490.927 170.807 487.226 175.063 483.524 179.24 483.288 180.896 483.288 180.896L484.942 165.289 497.148 160.323 502.188 162.767 501.637 167.023Z" fill="url(#paint50_linear_242_4322)"/><path d="M501.637 167.023C501.637 167.023 518.726 174.354 518.962 184.127 518.962 184.127 526.995 178.058 521.01 170.57 515.025 163.082 500.456 158.589 500.456 158.589L501.637 167.023Z" fill="url(#paint51_linear_242_4322)"/><path d="M558.652 286.123 543.296 235.519C542.43 232.366 541.485 230.08 540.54 229.292 535.5 224.957 506.441 222.435 506.441 222.435 502.818 225.666 495.494 225.351 495.494 225.351 495.494 225.351 488.171 225.745 484.548 222.435 484.548 222.435 455.568 224.957 450.449 229.292 449.189 230.317 447.929 234.1 446.748 239.145 445.961 242.613 445.173 246.633 444.386 250.889L431.707 297.079C429.738 304.173 432.731 311.74 439.031 315.523L454.781 325.061 449.032 283.049H495.416 533.531L531.877 322.775 548.415 312.922C557.628 307.247 561.723 296.291 558.652 286.123Z" fill="url(#paint52_radial_242_4322)"/><path d="M530.224 352.018 551.093 354.461 547.628 366.048H527.625L530.224 352.018Z" fill="url(#paint53_linear_242_4322)"/><path d="M542.903 410.819C542.903 410.819 537.233 426.346 537.469 429.499 537.626 432.573 523.688 417.991 523.688 417.991 523.688 417.991 528.334 413.971 530.066 406.326 531.799 398.759 542.903 410.819 542.903 410.819Z" fill="url(#paint54_linear_242_4322)"/><path d="M538.414 347.052H451.001L421.706 325.533H538.414V347.052Z" fill="url(#paint55_linear_242_4322)"/><path d="M494.392 381.497C558.109 381.497 609.761 375.039 609.761 367.072 609.761 359.106 558.109 352.648 494.392 352.648 430.676 352.648 379.023 359.106 379.023 367.072 379.023 375.039 430.676 381.497 494.392 381.497Z" fill="url(#paint56_radial_242_4322)" opacity=".69"/><path d="M538.965 427.371C538.965 435.096 539.595 453.54 541.8 458.742 543.06 461.737 535.421 463.708 528.648 458.742 525.341 456.299 523.923 449.362 522.348 443.845 520.695 438.091 517.86 432.889 516.678 431.155 512.032 423.903 524.947 416.021 524.947 416.021 526.758 420.671 528.727 423.43 533.767 425.085 535.027 425.558 538.965 425.795 538.965 427.371Z" fill="url(#paint57_linear_242_4322)"/><path d="M560.936 354.619C560.936 354.619 574.087 350.756 576.686 352.333 579.284 353.909 583.773 361.791 582.828 365.338 582.434 366.915 562.589 365.338 562.589 365.338L560.936 354.619Z" fill="url(#paint58_linear_242_4322)"/><path d="M545.029 345.16 527.625 349.338 533.295 350.756 533.138 352.333 540.934 353.2 545.029 345.16Z" fill="#3a75ec" opacity=".42"/><path d="M533.295 350.756C533.295 350.756 481.556 337.199 473.524 335.465 465.57 333.731 422.809 320.41 413.122 326.716 403.436 333.022 389.576 356.037 448.717 362.264 507.937 368.57 531.799 366.994 531.799 366.994L533.295 350.756Z" fill="url(#paint59_linear_242_4322)"/><path d="M527.625 253.885 535.264 280.605H528.728L527.625 253.885Z" fill="url(#paint60_radial_242_4322)" opacity=".63"/><path d="M464.703 253.885 457.064 280.605H463.601L464.703 253.885Z" fill="url(#paint61_radial_242_4322)" opacity=".63"/><path d="M449.111 284.389 438.559 257.983H549.754L541.327 284.389H449.111Z" fill="url(#paint62_linear_242_4322)"/><path d="M535.658 327.977H454.781L448.009 275.797C447.694 273.748 449.269 272.014 451.316 272.014H539.044C541.091 272.014 542.666 273.826 542.43 275.797L535.658 327.977Z" fill="#eff4ff"/><path d="M535.422 330.026H455.018L448.246 277.531C448.009 275.718 449.427 274.142 451.238 274.142H538.887C540.934 274.142 542.509 275.955 542.194 277.925L535.422 330.026Z" fill="url(#paint63_linear_242_4322)"/><path d="M533.846 333.337H456.593C455.726 333.337 455.018 332.627 455.018 331.76V330.105H535.5V331.76C535.5 332.627 534.713 333.337 533.846 333.337Z" fill="url(#paint64_linear_242_4322)"/><path d="M541.643 274.851C541.013 274.221 540.226 273.826 539.281 273.826H498.252 492.188 451.159C450.293 273.826 449.427 274.221 448.797 274.851 448.167 275.482 448.088 276.506 448.167 277.452V277.295C448.324 276.112 448.639 275.639 449.112 275.166 449.663 274.615 450.372 274.378 451.081 274.378H492.188 498.094 539.202C539.911 274.378 540.619 274.615 541.171 275.166 541.722 275.718 541.958 276.191 542.116 277.295V277.452C542.352 276.506 542.194 275.482 541.643 274.851Z" fill="url(#paint65_linear_242_4322)"/><path d="M495.258 307.956C498.477 307.956 501.086 305.345 501.086 302.123 501.086 298.902 498.477 296.291 495.258 296.291 492.04 296.291 489.431 298.902 489.431 302.123 489.431 305.345 492.04 307.956 495.258 307.956Z" fill="#ffffff"/><path d="M498.33 341.692C512.741 333.416 544.793 316.075 555.424 316.075 569.048 316.075 578.498 328.371 573.143 346.894 564.086 378.029 543.611 414.129 543.611 414.129L528.885 408.217C528.885 408.217 535.106 358.796 545.029 345.16L540.934 353.2 533.138 352.333 533.295 350.835 498.33 341.692Z" fill="url(#paint66_linear_242_4322)"/></g></svg>