<svg width="24" height="24" viewBox="0 0 24 24" fill="red" xmlns="http://www.w3.org/2000/svg" id="" preserveAspectRatio="xMidYMid meet"><path fill-rule="evenodd" clip-rule="evenodd" d="M20.512 4.49c.937.263 1.677 1.035 1.929 2.014.469 1.788.45 5.515.45 5.515s0 3.708-.45 5.496c-.252.98-.992 1.75-1.93 2.014-1.713.471-8.565.471-8.565.471s-6.835 0-8.566-.49c-.937-.263-1.677-1.035-1.93-2.014C1 15.728 1 12 1 12s0-3.708.45-5.496c.253-.98 1.01-1.77 1.93-2.033C5.093 4 11.946 4 11.946 4s6.852 0 8.566.49zM15.462 12l-5.698 3.426V8.574L15.462 12z" fill="red"></path></svg>