<svg width="25" height="24" viewBox="0 0 31 30" fill="none" xmlns="http://www.w3.org/2000/svg" id="" class="Graphic-SVG SVG SVG--inline d-inline-block js-Graphic-SVG--no-responsive c-bw-12 lazyloaded" preserveAspectRatio="xMidYMid meet"><path d="M.097 15.255c.097-.746.194-1.308.485-1.958.775-1.763 2.23-2.877 4.071-3.526 3.102-1.114 6.301-1.02 9.306.278.485.186.942.52 1.426.799.122.07.029 0 .416.222.123.07.264.105.167.186-.09.074-.458.092-.554.092-1.26.093-2.327.743-3.2 1.578-2.035 1.67-3.199 3.897-3.586 6.31-.679 4.361.97 7.795 4.653 10.486.097.092.194.092.29.278-2.714-.371-5.04-1.3-7.076-2.784-2.908-2.134-4.944-4.918-5.816-8.351-.194-.743-.502-1.39-.582-2.32-.043-.502-.097-.545 0-1.29z" fill="#000"></path><path d="M.917 9.203c.48-.83.864-1.661 1.44-2.492C4.953 3.02 8.41.621 13.023.16c5.38-.646 10.28.646 14.219 4.43 1.825 1.753 3.17 3.876 3.554 6.46.384 2.583-.096 4.983-2.113 6.92-1.345 1.385-3.075 1.939-4.996 2.031-1.345 0-2.69-.092-4.035-.461a3.303 3.303 0 01-1.153-.554c-.576-.37-.673-.83-.288-1.477.192-.276.384-.461.48-.646.673-1.2.673-2.399.288-3.691-.672-1.938-2.017-3.322-3.843-4.337-2.305-1.385-4.9-1.846-7.59-1.661-2.305.184-4.515.83-6.436 2.122 0-.092 0-.092-.192-.092.096 0 .096 0 0 0z" fill="#000"></path><path d="M11.655 15.833c1.019 4.35 3.982 6.669 7.964 7.635 2.685.58 5.37.194 7.87-.966.186-.097.37-.097.463 0 .093.097.186.387.093.58 0 .193-.185.386-.278.58-1.944 2.803-4.444 4.832-7.685 5.799-3.426 1.063-6.297-.194-8.241-3.19-2.13-3.286-2.408-6.668-.37-10.148.092-.096.092-.193.184-.29 0 0-.092 0 0 0z" fill="#000"></path></svg>